<?xml version="1.0" standalone="no"?>
<!DOCTYPE svg PUBLIC "-//W3C//DTD SVG 20010904//EN"
 "http://www.w3.org/TR/2001/REC-SVG-20010904/DTD/svg10.dtd">
<svg version="1.0" xmlns="http://www.w3.org/2000/svg"
 width="1024.000000pt" height="1024.000000pt" viewBox="0 0 1024.000000 1024.000000"
 preserveAspectRatio="xMidYMid meet">
<metadata>
Created by potrace 1.11, written by Peter Selinger 2001-2013
</metadata>
<g transform="translate(0.000000,1024.000000) scale(0.100000,-0.100000)"
fill="#000000" stroke="none">
<path d="M6955 8602 c-2 -3 -42 -6 -87 -7 -46 -2 -83 -4 -83 -5 0 -1 -20 -3
-45 -4 -42 -3 -118 -13 -165 -22 -10 -2 -35 -6 -55 -9 -37 -6 -55 -9 -150 -30
-14 -4 -36 -8 -49 -11 -14 -3 -28 -7 -33 -10 -9 -6 -47 -15 -65 -16 -7 -1 -13
-4 -13 -8 0 -3 -9 -6 -21 -7 -27 -2 -163 -54 -167 -64 -2 -4 -10 -5 -18 -2 -8
3 -14 0 -14 -7 0 -6 -4 -9 -9 -5 -5 3 -17 -2 -25 -11 -9 -8 -16 -13 -16 -9 0
3 -10 0 -22 -7 -13 -7 -25 -13 -28 -13 -18 -4 -60 -30 -60 -37 0 -5 -4 -7 -9
-3 -5 3 -16 -2 -25 -10 -8 -9 -18 -16 -21 -15 -21 1 -29 -3 -52 -27 -15 -16
-23 -21 -19 -13 4 8 0 6 -9 -5 -9 -11 -18 -19 -20 -18 -9 4 -75 -39 -75 -49 0
-5 -4 -6 -10 -3 -5 3 -10 2 -10 -4 0 -5 -9 -13 -20 -16 -11 -4 -18 -11 -15
-16 4 -5 0 -9 -7 -9 -8 0 -34 -18 -58 -41 -25 -22 -55 -48 -67 -56 -13 -8 -20
-20 -16 -26 3 -5 1 -7 -4 -4 -6 4 -17 -1 -24 -10 -12 -14 -12 -16 0 -8 10 5
12 4 7 -3 -4 -7 -14 -12 -22 -12 -8 0 -13 -4 -10 -9 3 -5 -4 -11 -15 -14 -12
-3 -18 -10 -14 -16 3 -6 -1 -11 -11 -11 -10 0 -15 -2 -12 -5 3 -3 -8 -20 -24
-38 -47 -50 -53 -58 -94 -122 -21 -33 -42 -62 -45 -65 -8 -7 -22 -44 -21 -52
1 -5 -2 -8 -8 -8 -12 0 -41 -55 -33 -64 4 -3 2 -6 -4 -6 -11 0 -37 -57 -34
-72 0 -5 -3 -8 -9 -8 -5 0 -10 -6 -10 -12 0 -7 -7 -26 -15 -42 -8 -15 -13 -32
-10 -36 3 -5 2 -10 -2 -12 -8 -3 -39 -85 -48 -125 -3 -13 -8 -33 -11 -45 -3
-13 -7 -31 -7 -40 -1 -10 -5 -18 -10 -18 -4 0 -7 -6 -5 -12 1 -7 -2 -31 -6
-53 -5 -22 -11 -56 -13 -75 -3 -19 -7 -48 -9 -65 -27 -180 -21 -549 11 -685 3
-14 8 -36 10 -50 11 -74 18 -106 24 -110 5 -5 10 -24 13 -57 1 -7 5 -13 10
-13 4 0 7 -3 6 -7 -5 -15 26 -113 35 -113 5 0 7 -6 4 -12 -2 -7 4 -29 15 -48
10 -19 18 -40 18 -47 0 -7 4 -13 10 -13 5 0 9 -3 8 -7 -4 -14 13 -53 23 -53 5
0 8 -3 7 -7 -3 -13 25 -63 34 -63 5 0 7 -4 3 -9 -3 -5 2 -16 10 -24 8 -9 15
-20 15 -26 0 -6 5 -11 11 -11 5 0 7 -4 4 -10 -3 -5 -1 -10 4 -10 6 0 11 -6 11
-14 0 -8 10 -22 22 -30 12 -9 19 -16 14 -16 -5 0 1 -9 13 -19 12 -11 22 -22
21 -25 -1 -7 11 -21 63 -76 20 -22 37 -44 37 -48 0 -5 11 -15 25 -22 14 -7 23
-15 21 -17 -5 -6 43 -53 53 -53 5 0 12 -7 15 -16 3 -8 10 -12 16 -9 5 3 10 0
10 -8 0 -8 17 -27 37 -43 20 -15 33 -21 28 -13 -5 8 3 3 16 -11 14 -14 37 -34
53 -45 15 -11 34 -26 42 -33 8 -7 14 -10 14 -5 0 4 4 3 8 -2 12 -17 72 -57 72
-48 0 4 5 0 11 -9 5 -10 15 -18 20 -18 6 0 23 -9 38 -19 15 -11 34 -21 41 -23
8 -2 21 -9 28 -16 8 -7 17 -10 22 -7 4 3 11 -2 14 -11 3 -8 10 -13 15 -10 5 4
11 3 13 -1 4 -11 193 -99 228 -108 3 0 15 -6 28 -13 12 -7 22 -10 22 -6 0 3
11 -1 25 -10 14 -9 30 -14 34 -11 5 3 11 1 13 -4 1 -6 16 -12 31 -15 16 -3 36
-11 44 -18 9 -7 17 -11 17 -9 1 2 21 -3 46 -10 56 -16 52 -15 70 -22 8 -4 24
-8 35 -10 11 -2 27 -7 35 -10 8 -4 26 -8 40 -11 14 -2 37 -9 53 -15 15 -6 27
-9 27 -6 0 2 18 -2 40 -10 22 -8 43 -14 45 -14 3 0 18 -2 33 -5 31 -7 67 -15
102 -22 14 -3 36 -7 50 -9 14 -2 25 -4 25 -5 0 -2 21 -6 66 -14 20 -3 42 -8
50 -10 8 -3 30 -7 49 -10 19 -3 46 -8 60 -11 14 -3 39 -8 55 -11 17 -3 40 -8
52 -10 13 -2 33 -6 46 -8 12 -2 38 -8 57 -13 19 -6 43 -9 53 -7 9 1 17 -2 17
-8 0 -5 10 -9 23 -8 12 1 24 1 27 0 8 -3 43 -9 85 -16 65 -10 69 -11 88 -19 9
-4 24 -5 32 -1 8 3 15 1 15 -3 0 -5 8 -8 18 -6 9 1 24 -1 32 -5 16 -8 79 -21
118 -23 12 -1 22 -6 22 -11 0 -4 7 -6 15 -3 8 4 17 2 20 -3 3 -5 13 -9 23 -9
16 0 57 -8 57 -11 0 -1 7 -3 15 -5 39 -10 57 -15 88 -24 17 -5 32 -7 32 -3 0
4 4 2 8 -5 4 -6 21 -14 37 -17 17 -2 31 -5 33 -6 1 -2 5 -3 10 -5 4 -1 15 -5
25 -8 9 -4 25 -10 35 -14 9 -3 19 -7 22 -7 3 -1 14 -7 25 -13 11 -6 25 -12 30
-13 6 -2 21 -7 35 -11 14 -5 30 -10 35 -11 6 -1 16 -8 23 -15 7 -7 19 -13 26
-13 8 0 19 -7 26 -15 7 -8 16 -12 21 -9 5 3 9 0 9 -6 0 -6 4 -9 9 -6 5 3 11
-1 15 -9 3 -8 12 -15 21 -15 8 0 15 -4 15 -10 0 -5 7 -10 15 -10 8 0 15 -4 15
-8 0 -4 12 -15 28 -24 15 -9 39 -28 53 -42 15 -14 30 -22 34 -18 4 4 5 0 3 -8
-2 -8 3 -14 10 -12 8 1 11 -2 8 -7 -4 -5 6 -19 20 -30 15 -12 24 -21 20 -21
-4 0 5 -11 19 -25 14 -14 25 -32 25 -40 0 -8 5 -15 10 -15 6 0 10 -6 10 -14 0
-8 12 -29 28 -47 15 -18 22 -30 15 -26 -8 5 -8 1 0 -18 7 -14 15 -25 19 -25 4
0 5 -7 2 -15 -4 -8 -1 -15 5 -15 6 0 8 -7 5 -15 -4 -8 -1 -15 6 -15 6 0 9 -4
6 -8 -3 -5 -1 -26 5 -47 19 -69 24 -95 35 -190 15 -138 5 -386 -19 -460 -3
-11 -9 -36 -12 -55 -3 -19 -11 -40 -16 -47 -6 -7 -8 -17 -4 -23 3 -5 1 -10 -4
-10 -6 0 -11 -7 -11 -16 0 -17 -67 -150 -87 -174 -7 -8 -13 -19 -13 -23 1 -9
-192 -206 -200 -204 -7 2 -70 -39 -67 -44 1 -2 0 -3 -2 -2 -6 4 -65 -30 -73
-42 -4 -5 -8 -7 -8 -2 0 4 -21 -3 -47 -16 -46 -23 -92 -39 -193 -67 -25 -7
-52 -15 -60 -17 -8 -3 -34 -7 -57 -8 -24 -2 -46 -6 -51 -8 -14 -9 -186 -20
-317 -20 -157 1 -260 8 -379 27 -49 8 -92 14 -95 14 -3 -1 -24 4 -46 10 -22 6
-51 13 -65 16 -14 2 -36 9 -50 14 -14 5 -28 10 -33 10 -19 1 -73 15 -82 21 -5
4 -35 15 -65 25 -30 11 -61 23 -67 29 -7 5 -13 6 -13 2 0 -4 -7 -2 -15 5 -8 7
-15 9 -15 6 0 -4 -12 1 -27 12 -16 10 -46 27 -67 37 -22 10 -61 30 -88 46 -26
16 -48 25 -48 21 0 -4 -4 -2 -8 5 -4 6 -39 33 -77 59 -39 26 -72 50 -75 53 -3
3 -32 29 -65 56 -62 52 -219 205 -210 205 3 0 -3 8 -12 18 -10 11 -22 17 -27
14 -5 -3 -6 0 -3 5 4 6 -10 28 -31 49 -20 21 -30 35 -22 30 8 -4 2 5 -15 19
-16 15 -24 24 -17 20 11 -6 11 -3 1 13 -7 12 -17 18 -23 15 -5 -3 -6 -1 -2 5
3 6 1 17 -6 24 -17 18 -35 47 -50 78 -7 14 -23 42 -35 63 -13 20 -20 37 -16
37 5 0 1 6 -8 13 -9 7 -17 15 -17 20 -6 33 -16 58 -27 67 -8 6 -12 17 -9 25 3
7 1 16 -5 20 -6 3 -11 15 -11 26 0 10 -4 19 -10 19 -5 0 -7 7 -4 15 4 8 1 15
-7 15 -7 0 -10 3 -6 6 3 4 0 22 -8 40 -8 19 -14 36 -15 39 0 3 -2 10 -4 17
-11 32 -30 124 -28 131 1 4 -2 7 -7 7 -5 0 -8 8 -6 18 1 9 0 21 -3 26 -3 5 -6
25 -8 44 -2 19 -6 37 -9 41 -4 3 -201 6 -439 6 l-432 0 0 -1187 -1 -1186 481
0 481 -1 -1 397 c-1 218 1 401 4 405 4 8 42 -26 42 -38 0 -4 6 -12 13 -19 6
-7 32 -37 57 -66 82 -97 237 -240 261 -240 7 0 9 -3 6 -6 -4 -4 15 -22 41 -40
26 -18 52 -37 57 -41 19 -16 106 -73 111 -73 3 0 17 -9 31 -20 14 -11 29 -17
34 -14 5 3 9 1 9 -5 0 -6 53 -35 118 -66 64 -31 129 -63 144 -71 15 -8 30 -15
33 -14 9 0 24 -4 55 -17 73 -31 173 -63 180 -58 5 3 10 1 12 -4 1 -6 14 -12
28 -15 14 -3 61 -15 105 -26 121 -31 230 -51 345 -65 19 -2 67 -7 105 -12 90
-10 507 -10 605 0 159 17 243 28 260 36 8 4 30 8 49 10 19 1 40 6 46 11 7 5
14 8 16 5 3 -2 23 1 45 7 21 6 42 13 47 14 4 1 9 3 12 4 7 4 15 5 58 14 20 5
37 13 37 19 0 6 3 8 6 4 5 -5 66 14 144 46 14 6 27 11 30 11 12 3 125 59 130
65 3 3 10 6 15 6 17 0 175 96 175 106 0 6 4 8 10 4 5 -3 18 3 30 15 11 11 21
19 23 18 6 -7 46 30 39 37 -4 5 -2 6 3 2 12 -7 62 31 165 123 24 22 48 40 53
40 4 0 5 5 2 10 -3 6 0 10 9 10 8 0 16 4 18 9 2 5 21 29 43 53 69 74 125 144
125 156 0 7 5 12 10 12 6 0 14 8 17 17 4 9 14 25 22 35 9 10 16 22 16 27 0 4
8 15 18 25 9 10 17 24 17 32 0 8 4 14 9 14 5 0 13 10 17 23 4 12 10 24 14 27
8 5 91 178 94 195 1 6 7 19 13 30 12 22 69 197 77 236 11 51 15 71 22 92 7 22
13 55 19 112 2 17 4 30 6 30 1 0 3 11 4 25 1 14 5 32 9 41 9 22 2 616 -8 649
-4 14 -9 39 -12 55 -5 38 -11 73 -18 108 -3 15 -9 39 -12 55 -3 15 -6 33 -6
40 -1 6 -5 12 -9 12 -5 0 -6 7 -3 15 4 8 1 21 -5 29 -6 7 -8 16 -4 19 3 4 1 7
-6 7 -7 0 -9 5 -6 10 3 6 3 16 -2 23 -4 6 -8 18 -9 25 -2 8 -6 21 -10 30 -4 9
-8 20 -9 25 -2 4 -4 9 -5 12 -1 3 -3 8 -5 13 -1 4 -8 21 -15 37 -7 17 -13 33
-12 38 1 4 -3 7 -8 7 -5 0 -9 3 -8 8 3 11 -36 92 -44 92 -5 0 -8 7 -8 15 0 8
-5 15 -11 15 -5 0 -8 4 -4 9 3 6 -5 20 -17 32 -13 12 -16 19 -8 15 8 -4 4 2
-10 14 -14 12 -19 18 -11 14 9 -5 8 2 -5 19 -10 15 -22 27 -26 27 -5 0 -8 6
-8 14 0 8 -12 24 -26 35 -15 12 -24 21 -20 21 4 0 -2 10 -14 22 -11 12 -20 25
-20 30 0 4 -7 8 -15 8 -8 0 -15 4 -15 8 0 14 -36 52 -49 52 -7 0 -9 5 -6 10 3
5 2 10 -2 10 -5 0 -24 15 -43 33 -45 42 -120 100 -120 93 0 -4 -14 7 -30 23
-17 16 -44 34 -60 41 -17 7 -30 17 -30 22 0 5 -5 6 -10 3 -6 -3 -13 0 -16 9
-3 8 -12 17 -20 20 -10 4 -13 1 -9 -7 4 -6 1 -5 -7 3 -19 23 -104 70 -112 63
-3 -3 -6 -1 -6 6 0 7 -4 10 -9 7 -5 -4 -11 -2 -13 2 -4 10 -138 75 -155 75 -7
0 -13 4 -13 9 0 5 -4 6 -10 3 -5 -3 -10 -1 -10 4 0 6 -6 11 -13 11 -7 0 -32 9
-55 20 -24 12 -48 18 -54 14 -7 -4 -8 -3 -4 4 6 11 -19 18 -46 13 -5 0 -8 4
-8 10 0 5 -4 7 -10 4 -5 -3 -10 -2 -10 3 0 5 -7 9 -15 10 -8 1 -22 3 -30 4 -8
1 -15 6 -15 11 0 5 -7 7 -15 3 -8 -3 -15 0 -15 6 0 6 -3 8 -7 5 -3 -4 -12 -2
-18 3 -7 6 -24 11 -39 12 -14 1 -26 6 -26 11 0 5 -7 7 -15 4 -8 -4 -17 -2 -21
4 -3 6 -12 8 -20 5 -8 -3 -14 -1 -14 4 0 6 -9 10 -21 10 -11 0 -28 4 -38 9
-10 6 -28 11 -42 13 -13 2 -30 7 -37 12 -7 4 -16 5 -19 2 -3 -3 -14 -1 -25 5
-11 6 -29 12 -41 15 -25 4 -58 12 -87 19 -11 3 -29 7 -41 10 -11 2 -28 6 -37
9 -26 8 -110 25 -152 31 -14 1 -25 4 -25 5 0 3 -27 8 -70 14 -16 2 -30 5 -30
6 0 2 -9 4 -20 6 -11 1 -34 5 -52 8 -18 2 -40 7 -50 10 -24 7 -82 18 -113 22
-14 1 -25 3 -25 4 0 2 -33 9 -70 14 -16 3 -30 5 -30 6 0 1 -11 3 -25 5 -14 2
-37 6 -52 9 -43 9 -80 17 -113 23 -46 8 -60 11 -60 13 0 3 -96 23 -117 24 -10
0 -18 4 -18 9 0 5 -7 7 -15 4 -8 -4 -17 -2 -21 4 -3 6 -12 8 -19 5 -7 -2 -18
1 -24 7 -6 6 -11 7 -11 3 0 -5 -7 -3 -15 4 -9 7 -18 10 -22 7 -3 -4 -12 -2
-20 4 -7 6 -13 9 -13 5 0 -4 -14 1 -31 9 -17 9 -33 14 -37 11 -3 -3 -10 -2
-16 3 -14 11 -118 46 -128 43 -5 -1 -8 2 -8 7 0 9 -57 27 -72 23 -5 -1 -8 2
-8 7 0 9 -58 35 -72 32 -5 0 -8 3 -8 8 0 8 -37 24 -52 22 -5 -1 -8 4 -8 10 0
5 -4 7 -10 4 -5 -3 -10 -3 -10 2 0 11 -58 43 -76 43 -9 0 -13 4 -10 9 5 7 -21
24 -31 22 -2 -1 -12 7 -22 17 -41 38 -95 77 -103 74 -4 -1 -7 3 -6 10 2 6 -7
17 -19 23 -13 7 -20 14 -17 18 3 3 -3 12 -15 19 -12 7 -21 17 -21 22 0 4 -12
23 -27 41 -36 41 -86 124 -90 150 -2 10 -7 22 -11 25 -4 3 -9 14 -10 25 -2 11
-7 22 -10 25 -4 3 -8 14 -10 25 -1 11 -4 25 -6 30 -7 24 -16 63 -21 100 -10
59 -10 283 -1 335 4 25 9 56 11 70 2 14 4 26 5 28 1 1 3 5 4 10 1 4 5 13 9 20
5 6 6 16 2 21 -3 5 -1 12 5 16 6 4 8 11 5 16 -4 5 -1 9 4 9 6 0 11 9 11 19 0
11 5 23 11 26 6 4 8 14 5 22 -4 9 -2 11 6 7 7 -5 9 -2 5 9 -3 9 0 18 9 21 9 3
12 10 9 16 -3 5 -1 10 4 10 6 0 11 7 11 15 0 8 5 15 11 15 5 0 8 4 5 9 -3 5 1
12 10 15 9 4 14 9 11 12 -2 3 5 15 17 28 50 52 74 85 68 91 -4 4 -2 5 3 3 6
-2 17 3 25 9 8 7 36 30 61 51 26 22 64 50 85 62 22 13 42 28 45 33 3 5 9 9 12
8 4 0 30 10 59 23 58 25 92 38 96 36 1 0 15 6 30 13 15 8 33 12 40 10 6 -3 12
1 12 7 0 6 6 10 13 7 6 -2 26 0 42 5 17 5 41 11 55 13 14 2 34 6 45 8 69 16
145 21 340 20 219 0 328 -6 435 -27 14 -3 39 -7 55 -10 17 -2 41 -8 55 -13 14
-5 32 -9 40 -8 8 1 21 -3 28 -8 6 -5 12 -7 12 -3 0 3 12 1 28 -5 15 -6 34 -12
42 -14 13 -3 106 -35 150 -52 8 -4 17 -7 20 -7 3 -1 29 -14 58 -28 28 -15 52
-24 52 -20 0 4 4 3 8 -3 4 -5 16 -17 26 -25 16 -12 18 -12 11 -1 -4 8 7 2 26
-13 19 -15 37 -27 42 -26 4 0 17 -9 29 -19 11 -11 26 -17 32 -14 6 3 8 3 4 -2
-8 -9 71 -72 84 -67 5 1 7 -1 6 -5 -2 -5 0 -9 4 -11 13 -6 168 -162 168 -170
0 -4 16 -24 35 -45 19 -21 35 -42 35 -48 0 -5 5 -9 10 -9 6 0 10 -6 10 -13 0
-7 9 -23 20 -35 11 -12 20 -26 20 -32 0 -5 5 -10 11 -10 5 0 8 -4 5 -9 -3 -5
1 -14 9 -21 8 -7 15 -19 15 -26 0 -8 5 -14 10 -14 6 0 10 -9 10 -20 0 -11 3
-20 8 -20 4 0 13 -15 21 -32 7 -18 20 -49 29 -68 9 -19 15 -38 14 -42 -1 -5 3
-8 9 -8 5 0 8 -4 4 -9 -3 -5 -1 -12 5 -16 6 -4 8 -11 5 -16 -4 -5 -2 -9 4 -9
6 0 8 -6 5 -13 -3 -8 2 -19 10 -26 8 -7 13 -18 10 -26 -3 -7 -1 -16 5 -19 6
-4 8 -13 4 -21 -3 -8 0 -15 7 -15 6 0 8 -5 5 -10 -4 -6 -1 -17 5 -25 7 -8 9
-15 5 -15 -4 0 -3 -6 3 -12 11 -14 12 -18 12 -43 0 -13 54 -15 425 -15 l425 0
0 28 c1 15 1 464 1 997 l1 970 -461 1 -461 0 0 -308 c0 -197 -4 -308 -10 -308
-5 0 -15 9 -22 20 -7 11 -18 20 -25 20 -6 0 -15 5 -19 12 -5 7 -3 8 7 3 12 -8
12 -6 0 8 -7 9 -18 14 -25 10 -6 -3 -8 -3 -4 2 10 10 -11 37 -23 29 -5 -3 -9
-1 -9 4 0 14 -36 52 -49 52 -6 0 -10 3 -9 8 2 4 1 7 -2 8 -3 0 -23 18 -45 40
-44 43 -134 111 -177 133 -16 8 -28 18 -28 23 0 4 -5 8 -10 8 -6 0 -29 12 -53
27 -56 36 -87 53 -87 47 0 -3 -7 2 -16 10 -8 9 -20 14 -25 11 -5 -4 -9 -1 -9
5 0 6 -4 8 -10 5 -5 -3 -10 -3 -10 2 0 4 -15 14 -32 21 -18 8 -42 18 -53 23
-11 4 -27 10 -35 11 -8 2 -21 9 -28 16 -8 7 -18 10 -23 7 -5 -4 -9 -1 -9 5 0
7 -7 10 -15 6 -8 -3 -15 -1 -15 5 0 6 -4 8 -9 4 -5 -3 -13 0 -16 6 -4 5 -13 8
-20 5 -8 -3 -15 -1 -17 4 -2 5 -14 11 -28 14 -14 2 -26 5 -27 7 -2 1 -7 3 -13
4 -5 1 -11 3 -12 5 -5 3 -43 12 -60 13 -10 1 -18 5 -18 9 0 4 -3 7 -7 6 -5 -1
-26 4 -49 10 -22 7 -56 14 -75 16 -19 3 -34 6 -34 7 0 1 -9 3 -20 4 -11 2 -31
5 -45 8 -58 14 -79 17 -135 23 -33 3 -73 8 -90 10 -86 13 -481 25 -490 16z
m-545 -1076 c0 -2 -8 -10 -17 -17 -16 -13 -17 -12 -4 4 13 16 21 21 21 13z"/>
<path d="M584 8075 l0 -391 453 0 c395 1 454 -1 457 -14 10 -39 -4 -5945 -14
-5945 -1 0 -3 -16 -6 -35 -4 -31 -16 -99 -30 -167 -2 -12 -9 -34 -14 -49 -6
-14 -8 -30 -4 -35 3 -5 1 -9 -3 -9 -12 0 -34 -61 -26 -73 3 -6 1 -7 -5 -3 -7
4 -12 1 -12 -9 0 -9 -9 -30 -21 -46 -11 -16 -17 -29 -12 -29 4 0 3 -4 -3 -8
-6 -4 -21 -23 -33 -42 -11 -19 -21 -32 -21 -29 0 3 -20 -13 -46 -37 -25 -24
-54 -46 -65 -49 -10 -4 -19 -11 -19 -16 0 -5 -3 -8 -7 -7 -13 3 -83 -25 -83
-34 0 -4 -3 -7 -7 -6 -5 1 -21 -1 -38 -5 -123 -29 -201 -34 -560 -35 -187 -1
-355 -1 -372 -1 l-33 -1 0 -500 0 -500 543 3 c298 2 571 6 607 9 90 9 209 25
250 33 14 3 50 10 80 16 81 16 254 70 258 80 2 5 8 6 13 3 14 -8 244 109 314
160 61 45 83 64 145 120 43 40 134 146 125 146 -4 0 3 9 16 20 13 10 21 19 17
20 -4 0 4 12 18 27 13 14 22 28 20 31 -3 2 2 11 10 19 8 8 11 19 8 25 -4 7 -2
8 4 4 11 -6 14 0 11 20 0 4 4 10 9 13 5 3 24 38 42 76 17 39 36 78 41 88 5 10
7 22 4 27 -3 4 -1 10 4 12 12 4 83 227 76 238 -4 6 -2 10 3 10 5 0 9 6 10 13
2 30 9 64 14 72 3 6 9 32 12 58 4 27 9 57 11 67 2 9 6 35 10 56 3 22 8 50 10
64 2 14 7 57 10 95 4 39 9 90 12 115 3 25 6 1368 8 2985 1 1617 3 2945 4 2950
1 7 150 10 426 9 l425 0 1 30 c1 42 1 728 0 742 -1 7 -466 10 -1524 10 l-1523
0 0 -391z"/>
</g>
</svg>
